<svg width="809" height="637" viewBox="0 0 809 637" fill="none" xmlns="http://www.w3.org/2000/svg">
<g clip-path="url(#clip0_196_81)">
<path d="M54.4933 -6.62207L54.5978 -6.61426C54.8378 -6.57705 55.0427 -6.413 55.13 -6.18066L95.63 101.616L130.636 -6.15137L130.677 -6.25195C130.792 -6.47638 131.024 -6.6219 131.282 -6.62207H184.498L184.605 -6.61328C184.85 -6.57428 185.059 -6.40297 185.142 -6.16211L221.007 98.4512L260.671 -6.18262C260.771 -6.44709 261.025 -6.62207 261.308 -6.62207H310.444C310.671 -6.62207 310.882 -6.50908 311.009 -6.32129C311.135 -6.13351 311.16 -5.89535 311.075 -5.68555L246.499 153.588C246.395 153.845 246.145 154.013 245.868 154.013H195.453C195.166 154.013 194.91 153.833 194.813 153.563L157.067 48.7891L121.439 153.552C121.345 153.828 121.085 154.013 120.794 154.013H65.6515C65.3759 154.013 65.1277 153.847 65.0226 153.592L-0.628741 -5.68164C-0.715293 -5.89162 -0.691608 -6.13158 -0.565264 -6.32031C-0.438899 -6.50888 -0.226845 -6.62207 0.000165641 -6.62207H54.4933ZM376.299 -6.62207L376.405 -6.61426C376.648 -6.57605 376.854 -6.40804 376.94 -6.17188L414.686 98.5986L450.314 -6.16016C450.407 -6.43598 450.667 -6.62193 450.958 -6.62207H506.101L506.202 -6.61426C506.436 -6.57905 506.638 -6.42408 506.73 -6.20117L572.382 153.073C572.468 153.283 572.444 153.522 572.318 153.711C572.191 153.9 571.979 154.013 571.752 154.013H517.259C516.976 154.013 516.722 153.837 516.622 153.572L476.121 45.7744L441.117 153.543C441.026 153.823 440.765 154.013 440.47 154.013H387.255C386.964 154.013 386.705 153.828 386.61 153.553L350.744 48.9385L311.081 153.573C310.981 153.838 310.727 154.013 310.444 154.013H261.308C261.081 154.013 260.87 153.901 260.743 153.713C260.617 153.525 260.592 153.286 260.677 153.076L325.253 -6.19727L325.299 -6.28906C325.42 -6.49328 325.641 -6.62207 325.884 -6.62207H376.299ZM575.38 -6.62207L575.484 -6.61426C575.724 -6.57698 575.929 -6.41294 576.017 -6.18066L616.517 101.616L651.522 -6.15137C651.613 -6.43177 651.874 -6.62197 652.169 -6.62207H705.384L705.491 -6.61328C705.737 -6.57421 705.946 -6.4029 706.028 -6.16211L741.894 98.4512L781.558 -6.18262L781.602 -6.27734C781.721 -6.48817 781.947 -6.62207 782.194 -6.62207H831.331C831.558 -6.62207 831.769 -6.50908 831.896 -6.32129C832.022 -6.13353 832.047 -5.8953 831.962 -5.68555L767.386 153.588C767.282 153.845 767.032 154.013 766.755 154.013H716.34C716.053 154.013 715.797 153.833 715.699 153.563L677.952 48.791L642.325 153.552C642.231 153.828 641.972 154.013 641.681 154.013H586.538C586.263 154.013 586.014 153.847 585.909 153.592L520.257 -5.68164C520.17 -5.89162 520.195 -6.13158 520.321 -6.32031C520.448 -6.50882 520.66 -6.62207 520.887 -6.62207H575.38ZM586.993 152.651H641.193L677.29 46.5127L677.333 46.4141C677.448 46.1953 677.676 46.0531 677.929 46.0508C678.218 46.0482 678.477 46.2289 678.575 46.501L716.818 152.651H766.296L830.32 -5.26074H782.663L742.498 100.698C742.397 100.966 742.138 101.142 741.851 101.138C741.564 101.133 741.311 100.949 741.218 100.678L704.898 -5.26074H652.663L617.211 103.886C617.122 104.161 616.868 104.35 616.579 104.356C616.29 104.363 616.029 104.186 615.927 103.915L574.908 -5.26074H521.903L586.993 152.651ZM262.318 152.651H309.976L350.141 46.6924L350.186 46.5967C350.307 46.3834 350.537 46.2489 350.788 46.2529C351.075 46.2576 351.328 46.4418 351.421 46.7129L387.741 152.651H439.976L475.428 43.5049L475.469 43.4062C475.581 43.1858 475.807 43.0409 476.06 43.0352C476.349 43.0287 476.61 43.2051 476.712 43.4756L517.731 152.651H570.735L505.646 -5.26074H451.445L415.349 100.879C415.256 101.153 414.999 101.337 414.71 101.34C414.421 101.342 414.162 101.162 414.064 100.891L375.821 -5.26074H326.343L262.318 152.651ZM66.1076 152.651H120.307L156.404 46.5127L156.446 46.4141C156.562 46.1952 156.789 46.0531 157.042 46.0508C157.331 46.0482 157.591 46.2289 157.689 46.501L195.932 152.651H245.409L309.434 -5.26074H261.777L221.611 100.698C221.51 100.966 221.251 101.142 220.964 101.138C220.677 101.133 220.424 100.949 220.331 100.678L184.011 -5.26074H131.777L96.3254 103.886C96.236 104.161 95.9825 104.35 95.6935 104.356C95.4044 104.363 95.1419 104.186 95.0402 103.915L54.0226 -5.26074H1.01677L66.1076 152.651Z" fill="#FF5600"/>
<path d="M121.198 156.736L121.302 156.744C121.542 156.781 121.747 156.945 121.835 157.177L162.335 264.974L197.34 157.207L197.382 157.106C197.496 156.882 197.729 156.736 197.987 156.736H251.203L251.309 156.745C251.555 156.784 251.764 156.955 251.846 157.196L287.712 261.809L327.376 157.175C327.476 156.911 327.729 156.736 328.012 156.736H377.149C377.375 156.736 377.587 156.849 377.714 157.037C377.84 157.224 377.865 157.463 377.78 157.672L313.204 316.946C313.1 317.203 312.85 317.371 312.573 317.371H262.158C261.871 317.371 261.615 317.191 261.517 316.921L223.771 212.147L188.143 316.91C188.049 317.186 187.79 317.371 187.499 317.371H132.356C132.08 317.371 131.832 317.205 131.727 316.95L66.0758 157.676C65.9893 157.466 66.013 157.226 66.1393 157.038C66.2657 156.849 66.4777 156.736 66.7048 156.736H121.198ZM443.004 156.736L443.11 156.744C443.352 156.782 443.559 156.95 443.644 157.186L481.39 261.957L517.018 157.198C517.112 156.922 517.371 156.736 517.663 156.736H572.805L572.907 156.744C573.141 156.779 573.342 156.934 573.434 157.157L639.087 316.431C639.173 316.641 639.148 316.88 639.022 317.069C638.896 317.258 638.684 317.371 638.457 317.371H583.964C583.68 317.371 583.427 317.195 583.327 316.93L542.826 209.132L507.822 316.901C507.731 317.181 507.469 317.37 507.174 317.371H453.96C453.669 317.371 453.409 317.186 453.315 316.911L417.449 212.296L377.786 316.931C377.686 317.196 377.432 317.371 377.149 317.371H328.012C327.786 317.371 327.574 317.258 327.448 317.071C327.321 316.883 327.296 316.644 327.381 316.434L391.958 157.161L392.004 157.069C392.125 156.865 392.346 156.736 392.589 156.736H443.004ZM642.085 156.736L642.189 156.744C642.429 156.781 642.634 156.945 642.721 157.177L683.221 264.974L718.226 157.207C718.317 156.926 718.579 156.736 718.874 156.736H772.089L772.196 156.745C772.442 156.784 772.65 156.955 772.733 157.196L808.598 261.809L848.262 157.175L848.306 157.081C848.426 156.87 848.651 156.736 848.899 156.736H898.036C898.262 156.736 898.474 156.849 898.6 157.037C898.727 157.224 898.752 157.463 898.667 157.672L834.09 316.946C833.986 317.203 833.737 317.371 833.46 317.371H783.045C782.758 317.371 782.501 317.191 782.404 316.921L744.657 212.149L709.03 316.91C708.936 317.185 708.677 317.37 708.385 317.371H653.243C652.967 317.371 652.719 317.205 652.614 316.95L586.962 157.676C586.875 157.466 586.9 157.226 587.026 157.038C587.152 156.849 587.364 156.736 587.591 156.736H642.085ZM653.698 316.009H707.898L743.995 209.871L744.038 209.772C744.153 209.553 744.38 209.411 744.633 209.409C744.923 209.406 745.182 209.587 745.28 209.859L783.523 316.009H833.001L897.025 158.097H849.368L809.203 264.056C809.101 264.324 808.842 264.5 808.555 264.496C808.269 264.491 808.016 264.307 807.922 264.036L771.602 158.097H719.368L683.916 267.244C683.826 267.519 683.573 267.708 683.284 267.714C682.995 267.721 682.733 267.544 682.631 267.273L641.613 158.097H588.608L653.698 316.009ZM329.023 316.009H376.68L416.845 210.05L416.89 209.955C417.012 209.741 417.242 209.607 417.493 209.611C417.779 209.616 418.033 209.8 418.126 210.071L454.446 316.009H506.68L542.132 206.863L542.173 206.764C542.286 206.544 542.511 206.399 542.764 206.393C543.053 206.387 543.315 206.563 543.417 206.833L584.435 316.009H637.44L572.35 158.097H518.15L482.053 264.237C481.96 264.511 481.704 264.695 481.415 264.698C481.126 264.7 480.866 264.52 480.768 264.249L442.526 158.097H393.047L329.023 316.009ZM132.812 316.009H187.011L223.109 209.871L223.151 209.772C223.266 209.553 223.494 209.411 223.747 209.409C224.036 209.406 224.295 209.587 224.393 209.859L262.636 316.009H312.114L376.138 158.097H328.482L288.316 264.056C288.214 264.324 287.955 264.5 287.669 264.496C287.382 264.491 287.129 264.307 287.036 264.036L250.715 158.097H198.481L163.03 267.244C162.941 267.519 162.687 267.708 162.398 267.714C162.109 267.721 161.847 267.544 161.745 267.273L120.727 158.097H67.7214L132.812 316.009Z" fill="#FF5600"/>
<path d="M187.903 320.094L188.007 320.102C188.247 320.139 188.452 320.303 188.539 320.535L229.039 428.332L264.045 320.564L264.086 320.464C264.201 320.239 264.433 320.094 264.692 320.094H317.907L318.014 320.103C318.26 320.142 318.468 320.313 318.551 320.554L354.416 425.167L394.08 320.533C394.18 320.269 394.434 320.094 394.717 320.094H443.854C444.08 320.094 444.292 320.207 444.418 320.395C444.545 320.582 444.57 320.82 444.484 321.03L379.908 480.304C379.804 480.561 379.555 480.729 379.277 480.729H328.862C328.576 480.728 328.319 480.549 328.222 480.279L290.476 375.505L254.848 480.268C254.754 480.543 254.495 480.728 254.203 480.729H199.061C198.785 480.728 198.537 480.562 198.432 480.308L132.78 321.034C132.694 320.824 132.718 320.584 132.844 320.396C132.97 320.207 133.182 320.094 133.409 320.094H187.903ZM509.708 320.094L509.815 320.102C510.057 320.14 510.264 320.308 510.349 320.544L548.095 425.314L583.723 320.556C583.817 320.28 584.076 320.094 584.367 320.094H639.51L639.611 320.102C639.845 320.137 640.047 320.292 640.139 320.515L705.791 479.789C705.878 479.999 705.853 480.238 705.727 480.427C705.6 480.615 705.388 480.729 705.161 480.729H650.668C650.385 480.728 650.131 480.553 650.031 480.288L609.53 372.49L574.526 480.259C574.435 480.539 574.174 480.728 573.879 480.729H520.664C520.373 480.729 520.114 480.544 520.02 480.269L484.153 375.654L444.49 480.289C444.39 480.554 444.136 480.729 443.854 480.729H394.717C394.491 480.729 394.279 480.616 394.152 480.429C394.026 480.241 394.001 480.002 394.086 479.792L458.662 320.519L458.708 320.427C458.829 320.223 459.051 320.094 459.293 320.094H509.708ZM708.789 320.094L708.894 320.102C709.134 320.139 709.339 320.303 709.426 320.535L749.926 428.332L784.931 320.564C785.022 320.284 785.283 320.094 785.578 320.094H838.793L838.901 320.103C839.146 320.142 839.355 320.313 839.438 320.554L875.303 425.167L914.967 320.533L915.011 320.438C915.13 320.228 915.356 320.094 915.604 320.094H964.74C964.967 320.094 965.178 320.207 965.305 320.395C965.431 320.582 965.456 320.821 965.371 321.03L900.795 480.304C900.691 480.561 900.441 480.729 900.164 480.729H849.749C849.462 480.729 849.206 480.549 849.109 480.279L811.361 375.507L775.734 480.268C775.641 480.543 775.381 480.728 775.09 480.729H719.947C719.672 480.729 719.424 480.562 719.318 480.308L653.666 321.034C653.58 320.824 653.604 320.584 653.731 320.396C653.857 320.207 654.069 320.094 654.296 320.094H708.789ZM720.402 479.367H774.603L810.699 373.229L810.742 373.13C810.858 372.911 811.085 372.769 811.338 372.767C811.627 372.764 811.886 372.945 811.984 373.217L850.228 479.367H899.705L963.73 321.455H916.072L875.907 427.414C875.806 427.682 875.547 427.858 875.26 427.854C874.973 427.849 874.72 427.665 874.627 427.394L838.307 321.455H786.072L750.62 430.602C750.531 430.877 750.278 431.066 749.988 431.072C749.699 431.079 749.438 430.902 749.336 430.631L708.318 321.455H655.313L720.402 479.367ZM395.728 479.367H443.385L483.55 373.408L483.595 373.312C483.716 373.099 483.946 372.965 484.197 372.969C484.484 372.973 484.737 373.158 484.83 373.429L521.151 479.367H573.385L608.837 370.221L608.878 370.122C608.99 369.902 609.216 369.757 609.469 369.751C609.758 369.745 610.019 369.921 610.121 370.191L651.14 479.367H704.145L639.055 321.455H584.855L548.758 427.595C548.665 427.868 548.408 428.053 548.119 428.056C547.83 428.058 547.571 427.878 547.473 427.606L509.231 321.455H459.752L395.728 479.367ZM199.517 479.367H253.716L289.814 373.229L289.856 373.13C289.971 372.911 290.198 372.769 290.451 372.767C290.741 372.764 291 372.945 291.098 373.217L329.341 479.367H378.819L442.843 321.455H395.187L355.021 427.414C354.919 427.682 354.66 427.858 354.373 427.854C354.087 427.849 353.833 427.665 353.74 427.394L317.42 321.455H265.186L229.735 430.602C229.645 430.877 229.392 431.066 229.103 431.072C228.814 431.079 228.551 430.902 228.449 430.631L187.432 321.455H134.426L199.517 479.367Z" fill="#FF5600"/>
<path d="M254.607 483.451L254.711 483.459C254.951 483.496 255.156 483.66 255.243 483.893L295.743 591.689L330.749 483.922L330.79 483.821C330.905 483.597 331.138 483.451 331.396 483.451H384.611L384.718 483.46C384.964 483.499 385.172 483.67 385.255 483.911L421.12 588.524L460.784 483.891C460.885 483.626 461.138 483.451 461.421 483.451H510.558C510.784 483.451 510.996 483.564 511.122 483.752C511.249 483.94 511.274 484.178 511.189 484.388L446.612 643.661C446.508 643.918 446.259 644.086 445.982 644.086H395.567C395.28 644.086 395.023 643.907 394.926 643.637L357.18 538.862L321.552 643.625C321.458 643.901 321.199 644.086 320.907 644.086H265.765C265.489 644.086 265.241 643.92 265.136 643.665L199.485 484.392C199.398 484.182 199.422 483.942 199.548 483.753C199.674 483.564 199.886 483.451 200.113 483.451H254.607ZM576.412 483.451L576.519 483.459C576.761 483.497 576.968 483.665 577.053 483.901L614.799 588.672L650.427 483.913C650.521 483.637 650.78 483.451 651.071 483.451H706.214L706.316 483.459C706.549 483.494 706.751 483.649 706.843 483.872L772.495 643.146C772.582 643.356 772.557 643.596 772.431 643.784C772.304 643.973 772.092 644.086 771.865 644.086H717.372C717.089 644.086 716.835 643.911 716.735 643.646L676.234 535.848L641.231 643.616C641.139 643.897 640.878 644.086 640.583 644.086H587.368C587.077 644.086 586.818 643.901 586.724 643.626L550.858 539.012L511.194 643.646C511.094 643.911 510.841 644.086 510.558 644.086H461.421C461.195 644.086 460.983 643.974 460.857 643.786C460.73 643.598 460.705 643.359 460.79 643.149L525.366 483.876L525.412 483.784C525.534 483.58 525.755 483.451 525.997 483.451H576.412ZM775.493 483.451L775.598 483.459C775.838 483.496 776.043 483.66 776.13 483.893L816.63 591.689L851.635 483.922C851.726 483.641 851.988 483.451 852.282 483.451H905.497L905.605 483.46C905.85 483.499 906.059 483.67 906.142 483.911L942.007 588.524L981.671 483.891L981.715 483.796C981.834 483.585 982.06 483.451 982.308 483.451H1031.44C1031.67 483.451 1031.88 483.564 1032.01 483.752C1032.14 483.94 1032.16 484.178 1032.08 484.388L967.499 643.661C967.395 643.918 967.146 644.086 966.868 644.086H916.453C916.166 644.086 915.91 643.907 915.813 643.637L878.066 538.864L842.439 643.625C842.345 643.901 842.085 644.086 841.794 644.086H786.651C786.376 644.086 786.128 643.92 786.023 643.665L720.37 484.392C720.284 484.182 720.308 483.942 720.435 483.753C720.561 483.564 720.773 483.451 721 483.451H775.493ZM787.107 642.725H841.307L877.403 536.586L877.446 536.487C877.562 536.268 877.789 536.126 878.042 536.124C878.331 536.121 878.591 536.302 878.689 536.574L916.932 642.725H966.409L1030.43 484.812H982.776L942.611 590.771C942.51 591.04 942.251 591.216 941.964 591.211C941.677 591.206 941.424 591.022 941.331 590.751L905.011 484.812H852.776L817.324 593.959C817.235 594.234 816.982 594.423 816.693 594.43C816.403 594.436 816.142 594.259 816.04 593.988L775.022 484.812H722.017L787.107 642.725ZM462.432 642.725H510.089L550.254 536.766L550.299 536.67C550.421 536.457 550.65 536.322 550.901 536.326C551.188 536.331 551.441 536.515 551.534 536.786L587.855 642.725H640.089L675.541 533.578L675.582 533.479C675.694 533.259 675.92 533.114 676.173 533.108C676.462 533.102 676.724 533.278 676.825 533.549L717.844 642.725H770.849L705.759 484.812H651.559L615.462 590.952C615.369 591.226 615.112 591.41 614.823 591.413C614.534 591.416 614.275 591.236 614.177 590.964L575.935 484.812H526.456L462.432 642.725ZM266.221 642.725H320.42L356.518 536.586L356.56 536.487C356.675 536.268 356.902 536.126 357.155 536.124C357.445 536.121 357.704 536.302 357.802 536.574L396.045 642.725H445.523L509.547 484.812H461.891L421.725 590.771C421.623 591.04 421.364 591.216 421.077 591.211C420.791 591.206 420.537 591.022 420.444 590.751L384.124 484.812H331.89L296.439 593.959C296.349 594.234 296.096 594.423 295.807 594.43C295.518 594.436 295.255 594.259 295.153 593.988L254.136 484.812H201.13L266.221 642.725Z" fill="#FF5600"/>
</g>
<defs>
<clipPath id="clip0_196_81">
<rect width="809" height="637" fill="white"/>
</clipPath>
</defs>
</svg>
